<svg xmlns="http://www.w3.org/2000/svg" viewBox="0 0 127.6 25.5"><path fill="#FFF" d="M1.5 17.9h2.7v3.4c.8.4 2.2.7 3.8.7 2.5 0 4.1-.9 4.1-2.8 0-2.1-2-2.6-4.5-3.1-3-.6-6.1-1.5-6.1-5 0-3.2 2.6-5.4 7.1-5.4 2.4 0 4.8.7 6.2 1.5v4.5H12V8.4c-.7-.4-2-.7-3.4-.7-2.5 0-4 1-4 2.7 0 2.1 2.1 2.4 4.5 2.9 3.2.6 6.1 1.6 6.1 5.2 0 3.3-2.6 5.5-7.2 5.5-2.5 0-4.9-.7-6.6-1.5v-4.6zm19.1-2.5c.1 3.7 2.1 6.4 5.9 6.4 3 0 4.7-1.5 5.5-4.1l2.1.9c-.9 3.1-3.3 5.4-7.8 5.4-5.8 0-9.1-3.9-9.1-9.2 0-5.4 3.6-9.1 8.9-9.1 5.2 0 8.2 3.4 8.2 8.9v.9H20.6zm0-1.9h10.2c-.1-3.8-1.7-5.7-4.8-5.7-3.3 0-5.2 2-5.4 5.7zM37.9 19V8.2h-2.6V6.3s1.9-.1 1.7-.1c1-.1 1.5-.5 1.6-1.5l.3-3.2h2.4v4.6h3.9v2.1h-4V19c0 2 .8 2.7 2.4 2.7.9 0 1.4-.2 1.8-.3v2.2c-.4.1-1.5.4-2.6.4-3.5 0-4.9-1.5-4.9-5zm11 0V8.2h-2.6V6.3s1.9-.1 1.7-.1c1-.1 1.5-.5 1.6-1.5l.4-3.2h2.4v4.6h3.9v2.1h-4V19c0 2 .8 2.7 2.4 2.7.9 0 1.4-.2 1.8-.3v2.2c-.5.1-1.5.4-2.7.4-3.4 0-4.9-1.5-4.9-5zm13-10.3c.6.4.9 1 .9 1.8 0 1.3-.9 2.1-2.2 2.1-1.4 0-2.3-.9-2.3-2.4 0-3.1 3.5-4.6 7.7-4.6 5 0 7.2 1.8 7.2 6v9c0 .6.1.8.5.8h2v2.1h-5.1c-.4-1-.5-1.9-.7-3.4-1 2.3-3.6 3.9-6.6 3.9-3.3 0-5.4-2-5.4-4.6 0-4.1 4.1-5.8 11.9-6.7v-1c0-2.8-1.3-3.9-4.3-3.9-1.7 0-2.9.3-3.6.9zm7.9 7.2v-1.4c-5.7.6-8.6 1.7-8.6 4.4 0 1.7 1.3 2.9 3.2 2.9 3.3-.1 5.4-2.5 5.4-5.9zm12.8-6.1c1.2-2.7 3.3-4.2 6.2-4.2 3.7 0 5.5 2.1 5.5 6.2v8.7c0 .7.2.8.5.8h2v2.1h-8.4v-2.1h1.9c.3 0 .5-.1.5-.8V12c0-2.7-1-3.9-3.4-3.9-3 0-4.9 2.5-4.9 7.1v5.5c0 .7.2.8.5.8h1.9v2.1h-8.4v-2.1h2c.4 0 .5-.1.5-.8V9.2c0-.8-.1-1-.5-1h-2V6.1h1.9c1.6 0 3.2-.2 4-.3v4zM99.3 19V8.2h-2.6V6.3s1.9-.1 1.7-.1c1-.1 1.5-.5 1.6-1.5l.3-3.2h2.4v4.6h3.9v2.1h-4V19c0 2 .8 2.7 2.4 2.7.9 0 1.4-.2 1.8-.3v2.2c-.5.2-1.5.4-2.7.4-3.3 0-4.8-1.5-4.8-5zm13-10.3c.6.4.9 1 .9 1.8 0 1.3-.9 2.1-2.2 2.1-1.4 0-2.3-.9-2.3-2.4 0-3.1 3.5-4.6 7.7-4.6 5 0 7.2 1.8 7.2 6v9c0 .6.1.8.5.8h2v2.1H121c-.4-1-.5-1.9-.7-3.4-1 2.3-3.6 3.9-6.6 3.9-3.3 0-5.4-2-5.4-4.6 0-4.1 4.1-5.8 11.9-6.7v-1c0-2.8-1.3-3.9-4.3-3.9-1.7 0-2.9.3-3.6.9zm7.9 7.2v-1.4c-5.7.6-8.6 1.7-8.6 4.4 0 1.7 1.3 2.9 3.2 2.9 3.3-.1 5.4-2.5 5.4-5.9z"/></svg>